<svg width="18000" height="12000" viewBox="0 0 18000 12000" fill="none" xmlns="http://www.w3.org/2000/svg">
<rect width="18000" height="12000" fill="#00437C"/>
<path d="M9389.22 8336.55C9751.72 8336.55 10075.5 8511.8 10393.6 8643.78C10681.4 8763.18 11063.1 8739.53 11318.1 8563.71C11191.9 8721.99 11023.1 8819.43 10848.9 8885.59C10525 9014.84 10147.1 8915.66 9871.55 8739.54C9673.01 8612.62 9502.83 8432.75 9266.54 8432.75C9224.67 8432.75 9182.55 8437.46 9140.31 8446.34C9472.14 8579.28 9773.87 8813.45 10009.4 9038.44C9966.03 9087.96 9909.95 9134.23 9857.1 9176.89C9594.52 8905.53 9296.81 8611.61 9000 8490.2C8703.19 8611.61 8405.48 8905.53 8142.9 9176.89C8090.05 9134.23 8033.97 9087.96 7990.64 9038.44C8226.13 8813.45 8527.85 8579.28 8859.68 8446.34C8817.44 8437.47 8775.33 8432.75 8733.46 8432.75C8497.17 8432.75 8326.99 8612.62 8128.45 8739.54C7852.91 8915.66 7474.95 9014.84 7151.07 8885.59C6976.87 8819.43 6808.08 8721.99 6681.94 8563.71C6936.86 8739.53 7318.61 8763.18 7606.41 8643.78C7924.51 8511.8 8248.28 8336.55 8610.78 8336.55C8742.77 8336.55 8873.13 8358.65 9000 8396.98C9126.87 8358.65 9257.23 8336.55 9389.22 8336.55Z" fill="white"/>
<path d="M6841.38 7462.82C7097.56 7633.11 7309.78 7866.27 7549.33 8085.37C7716.04 8237.86 7923.76 8303.12 8139.19 8346.95C8087.43 8365.87 8019.7 8361.41 7963.95 8375.23C7577 8471.22 7147.98 8622.76 6736.24 8486.88C6470.51 8399.2 6194.01 8191.53 6059.74 7928.31C6413.56 8331.07 6990.61 8201.49 7462.95 8302.09C7528.68 8316.08 7590.43 8337.9 7661 8327.08C7604.86 8291.47 7530.41 8287.47 7465.55 8263.04C7099.08 8124.97 7041.95 7732.75 6841.38 7462.82Z" fill="white"/>
<path d="M11158.6 7462.82C10958.1 7732.75 10900.9 8124.97 10534.4 8263.04C10469.6 8287.47 10395.1 8291.47 10339 8327.08C10409.6 8337.9 10471.3 8316.08 10537.1 8302.09C11009.4 8201.49 11586.4 8331.07 11940.3 7928.31C11806 8191.53 11529.5 8399.2 11263.8 8486.88C10852 8622.76 10423 8471.22 10036 8375.23C9980.3 8361.41 9912.57 8365.87 9860.81 8346.95C10076.2 8303.12 10284 8237.86 10450.7 8085.37C10690.2 7866.27 10902.4 7633.11 11158.6 7462.82Z" fill="white"/>
<path d="M6310.94 6671.57C6458.55 6848.31 6596.99 7030.31 6681.99 7232.67C6818.76 7558.34 6865.23 7929.86 7172 8177.32C6840 8067.78 6456.98 8089.58 6158 7893.76C5843.74 7687.92 5552.48 7363.01 5492.61 6996.17C5713.3 7495.82 6267.77 7534.96 6636.45 7841.49C6706.55 7899.78 6776.07 7953.41 6853.07 7989.32L6857.04 7985.3C6771.97 7908.33 6679.9 7816.6 6614 7720.86C6403.28 7414.67 6473.42 6996.17 6310.94 6671.57Z" fill="white"/>
<path d="M11689.1 6671.57C11526.6 6996.17 11596.7 7414.67 11386 7720.86C11320.1 7816.6 11228 7908.33 11143 7985.3L11146.9 7989.32C11223.9 7953.41 11293.5 7899.78 11363.6 7841.49C11732.2 7534.96 12286.7 7495.82 12507.4 6996.17C12447.5 7363.01 12156.3 7687.92 11842 7893.76C11543 8089.58 11160 8067.78 10828 8177.32C11134.8 7929.86 11181.2 7558.34 11318 7232.67C11403 7030.31 11541.4 6848.31 11689.1 6671.57Z" fill="white"/>
<path d="M6659.01 6497.65C7065.39 7384.14 7960.58 7999.89 8999.59 7999.89C10038.6 7999.89 10933.8 7384.14 11340.2 6497.65H11384.1C10975 7406.85 10061.2 8039.89 8999.59 8039.89C7937.94 8039.89 7024.14 7406.85 6615.06 6497.65H6659.01Z" fill="white"/>
<path d="M6972.25 6497.65C7357.16 7222.28 8119.62 7715.74 8997.34 7715.74C9875.05 7715.74 10637.5 7222.28 11022.4 6497.65H11067.6C10679.2 7245.14 9897.92 7755.74 8997.34 7755.74C8096.76 7755.74 7315.43 7245.14 6927.06 6497.65H6972.25Z" fill="white"/>
<path d="M6069.12 5917.86C6261.74 6333.64 6199.61 6853.42 6310.94 7302.97C6335.56 7402.43 6396.13 7489.47 6433.45 7583.66C6244.19 7439.68 5996.16 7311.88 5788.41 7148.13C5587.51 6989.77 5413.11 6804.17 5322.47 6562.65C5257.16 6388.62 5240.16 6181.03 5256.2 5985.25C5288.11 6425.48 5756.77 6660.64 5980.26 7022.51C6027.98 7099.8 6077.1 7179.58 6146.42 7241.99C6135.61 7195.14 6097.05 7153.6 6075.81 7107.62C6004.15 6952.35 5971.7 6772.66 5989.59 6587.89C6011.37 6363.1 6105.09 6154.35 6069.12 5917.86Z" fill="white"/>
<path d="M11930.9 5917.86C11894.9 6154.35 11988.6 6363.1 12010.4 6587.89C12028.3 6772.66 11995.8 6952.35 11924.2 7107.62C11903 7153.6 11864.4 7195.14 11853.6 7241.99C11922.9 7179.58 11972 7099.8 12019.7 7022.51C12243.2 6660.64 12711.9 6425.48 12743.8 5985.25C12759.8 6181.03 12742.8 6388.62 12677.5 6562.65C12586.9 6804.17 12412.5 6989.77 12211.6 7148.13C12003.8 7311.88 11755.8 7439.68 11566.6 7583.66C11603.9 7489.47 11664.4 7402.42 11689.1 7302.97C11800.4 6853.42 11738.3 6333.64 11930.9 5917.86Z" fill="white"/>
<path d="M7298.93 6497.65C7654.85 7061.54 8283.48 7436.1 8999.59 7436.1C9715.7 7436.1 10344.3 7061.54 10700.3 6497.65H10747.4C10386.9 7084.62 9738.94 7476.1 8999.59 7476.1C8260.24 7476.1 7612.32 7084.63 7251.8 6497.65H7298.93Z" fill="white"/>
<path d="M7643.43 6497.65C7959.93 6896.3 8448.78 7151.95 8997.34 7151.95C9545.89 7151.95 10034.7 6896.3 10351.2 6497.65H10402C10078.9 6919.73 9569.91 7191.95 8997.34 7191.95C8424.76 7191.95 7915.77 6919.73 7592.71 6497.65H7643.43Z" fill="white"/>
<path d="M8028.96 6497.65C8285.03 6727.78 8623.7 6867.8 8995.08 6867.8C9366.46 6867.8 9705.13 6727.78 9961.2 6497.65H10020.1C9753.46 6751.78 9392.49 6907.8 8995.08 6907.8C8597.67 6907.8 8236.7 6751.78 7970.08 6497.65H8028.96Z" fill="white"/>
<path d="M5351.94 4884.06C5271.01 5299.34 5547.28 5599.31 5641.6 5958.6C5677.15 6093.99 5689.31 6237.85 5744.07 6364.2C5749.16 6366.93 5753.59 6361.63 5756.74 6357.54C5620.45 5975.18 5820.25 5621.79 6014.9 5320.39C6066.05 5241.17 6090.7 5148.92 6114.58 5055.66C6135.62 5228.76 6098.78 5429.14 6066.75 5607.75C6025.52 5837.7 5946.93 6053.24 5884.47 6275.1C5843.34 6413.71 5854.19 6570.15 5875.3 6715.36L5855.44 6699.53C5710.53 6432 5424.6 6222.99 5338.26 5931C5269.25 5697.63 5221.52 5428.02 5269.3 5174.13C5291.9 5075.88 5309.18 4974.19 5351.94 4884.06Z" fill="white"/>
<path d="M12648.1 4884.06C12690.8 4974.19 12708.1 5075.88 12730.7 5174.13C12778.5 5428.02 12730.7 5697.63 12661.7 5931C12575.4 6222.99 12289.5 6432 12144.6 6699.53L12124.7 6715.36C12145.8 6570.15 12156.7 6413.71 12115.5 6275.1C12053.1 6053.24 11974.5 5837.7 11933.2 5607.75C11901.2 5429.14 11864.4 5228.76 11885.4 5055.66C11909.3 5148.92 11934 5241.17 11985.1 5320.39C12179.8 5621.79 12379.5 5975.18 12243.3 6357.54C12246.4 6361.63 12250.8 6366.93 12255.9 6364.2C12310.7 6237.85 12322.8 6093.99 12358.4 5958.6C12452.7 5599.31 12729 5299.34 12648.1 4884.06Z" fill="white"/>
<path d="M8546.57 6497.65C8685.21 6555.94 8837.51 6588.15 8997.34 6588.15C9157.16 6588.15 9309.46 6555.94 9448.1 6497.65H9543.07C9379.25 6581.1 9193.79 6628.15 8997.34 6628.15C8800.88 6628.15 8615.42 6581.1 8451.6 6497.65H8546.57Z" fill="white"/>
<path fill-rule="evenodd" clip-rule="evenodd" d="M7414.33 4583.01C7537.21 4583.01 7650.51 4604.56 7754.23 4647.64C7859.56 4689.13 7950.52 4748.18 8027.12 4824.78C8105.31 4901.38 8165.95 4990.74 8209.04 5092.87C8252.13 5195.01 8273.67 5306.71 8273.67 5427.99C8273.67 5549.27 8252.13 5660.98 8209.04 5763.11C8165.95 5865.24 8105.31 5954.61 8027.12 6031.21C7950.52 6107.81 7859.56 6167.65 7754.23 6210.74C7650.51 6252.23 7537.21 6272.97 7414.33 6272.97C7291.45 6272.97 7177.35 6252.23 7072.03 6210.74C6968.3 6167.65 6877.34 6107.81 6799.15 6031.21C6722.55 5954.61 6662.7 5865.24 6619.62 5763.11C6576.53 5660.98 6554.99 5549.27 6554.99 5427.99C6554.99 5306.71 6576.53 5195.01 6619.62 5092.87C6662.7 4990.74 6722.55 4901.38 6799.15 4824.78C6877.34 4748.18 6968.3 4689.13 7072.03 4647.64C7177.35 4604.56 7291.45 4583.01 7414.33 4583.01ZM7414.33 4628.49C7299.43 4628.49 7192.51 4648.44 7093.57 4688.34C6994.63 4728.23 6908.46 4784.88 6835.05 4858.29C6761.64 4930.1 6704.2 5014.68 6662.7 5112.02C6622.81 5207.77 6602.86 5313.09 6602.86 5427.99C6602.86 5542.89 6622.81 5649.01 6662.7 5746.36C6704.2 5842.1 6761.64 5926.68 6835.05 6000.09C6908.46 6071.9 6994.63 6127.75 7093.57 6167.65C7192.51 6207.54 7299.43 6227.49 7414.33 6227.49C7529.23 6227.49 7636.15 6207.54 7735.09 6167.65C7834.03 6127.75 7920.2 6071.9 7993.61 6000.09C8067.01 5926.68 8123.66 5842.1 8163.56 5746.36C8205.05 5649.01 8225.8 5542.89 8225.8 5427.99C8225.8 5313.09 8205.05 5207.77 8163.56 5112.02C8123.66 5014.68 8067.01 4930.1 7993.61 4858.29C7920.2 4784.88 7834.03 4728.23 7735.09 4688.34C7636.15 4648.44 7529.23 4628.49 7414.33 4628.49Z" fill="white"/>
<path d="M8780.99 6265.79H8733.11V4590.19H8780.99V6265.79Z" fill="white"/>
<path fill-rule="evenodd" clip-rule="evenodd" d="M10052.4 4590.19C10229.5 4590.19 10384.3 4626.9 10516.7 4700.31C10649.2 4772.12 10752.1 4871.06 10825.5 4997.12C10898.9 5123.19 10935.6 5266.82 10935.6 5427.99C10935.6 5589.17 10898.9 5732.79 10825.5 5858.86C10752.1 5984.93 10649.2 6084.67 10516.7 6158.07C10384.3 6229.88 10229.5 6265.79 10052.4 6265.79H9418.03V4590.19H10052.4ZM9465.9 6220.31H10047.6C10218.3 6220.31 10366.7 6186 10492.8 6117.38C10618.9 6048.76 10716.2 5955.41 10784.8 5837.32C10853.5 5717.63 10887.8 5581.19 10887.8 5427.99C10887.8 5274.8 10853.5 5139.15 10784.8 5021.06C10716.2 4901.38 10618.9 4807.22 10492.8 4738.6C10366.7 4669.98 10218.3 4635.67 10047.6 4635.67H9465.9V6220.31Z" fill="white"/>
<path d="M11443.5 6265.79H11395.6V4590.19H11443.5V6265.79Z" fill="white"/>
<path d="M5728.05 3922.77C5733.37 3920.11 5737.17 3914.78 5744.04 3916.01C5541.99 4223.39 5725.89 4611.36 5699.93 4959.98L5673.27 5317.79C5677.23 5320.39 5677.23 5331.14 5686.62 5327.02C5698.56 5287.13 5702.18 5244.7 5709.13 5203.51C5757.78 4915.06 6011.06 4714.28 6225.88 4510.64C6275.01 4464.12 6313.24 4407.31 6337.85 4344.29C6319.99 4487.98 6279.9 4635.27 6215.4 4765.86C6050.06 5100.59 5730.71 5370.79 5673.27 5751.2C5645.43 5386.62 5422.14 5115.59 5422.14 4727.42C5422.14 4413.16 5544.5 4156.81 5728.05 3922.77Z" fill="white"/>
<path d="M12256 3916.01C12262.8 3914.78 12266.6 3920.11 12272 3922.77C12455.5 4156.81 12577.9 4413.16 12577.9 4727.42C12577.9 5115.59 12354.6 5386.62 12326.7 5751.2C12269.3 5370.79 11949.9 5100.59 11784.6 4765.86C11720.1 4635.27 11680 4487.98 11662.2 4344.29C11686.8 4407.31 11725 4464.12 11774.1 4510.64C11988.9 4714.28 12242.2 4915.06 12290.9 5203.51C12297.8 5244.7 12301.4 5287.13 12313.4 5327.02C12322.8 5331.14 12322.8 5320.39 12326.7 5317.79L12300.1 4959.98C12274.1 4611.36 12458 4223.39 12256 3916.01Z" fill="white"/>
<path d="M6305.8 3432.23C6042.55 3613.23 6056.84 3936.76 5976.24 4207.26C5946.77 4306.17 5903.45 4398.85 5880.42 4501.07L5887.09 4506.38C5930.88 4390.83 6006.04 4279.74 6103.95 4187.36C6289.11 4012.67 6567.49 3906.92 6659.11 3651.39C6654.93 4006.49 6352.23 4276.44 6075.77 4485.26C5951.75 4578.94 5846.39 4704.69 5782.08 4836.53C5792.83 4738.41 5797.7 4656.77 5788.95 4561C5760.57 4250.8 5742.15 3903.05 5954.75 3667.35C6056.34 3554.69 6170.23 3466.92 6305.8 3432.23Z" fill="white"/>
<path d="M11694.2 3432.23C11829.8 3466.92 11943.7 3554.69 12045.3 3667.35C12257.8 3903.05 12239.4 4250.8 12211.1 4561C12202.3 4656.77 12207.2 4738.41 12217.9 4836.53C12153.6 4704.69 12048.2 4578.94 11924.2 4485.26C11647.8 4276.44 11345.1 4006.49 11340.9 3651.39C11432.5 3906.92 11710.9 4012.67 11896.1 4187.36C11994 4279.74 12069.1 4390.83 12112.9 4506.38L12119.6 4501.07C12096.5 4398.85 12053.2 4306.17 12023.8 4207.26C11943.2 3936.76 11957.5 3613.23 11694.2 3432.23Z" fill="white"/>
<path d="M8999.59 2813C10061.2 2813 10975 3446.04 11384.1 4355.24H11340.2C10933.8 3468.75 10038.6 2853 8999.59 2853C7960.58 2853 7065.39 3468.75 6659.01 4355.24H6615.06C7024.14 3446.04 7937.94 2813 8999.59 2813Z" fill="white"/>
<path d="M8997.34 3092.64C9899.73 3092.64 10682.4 3605.29 11070 4355.24H11024.8C10640.7 3628.15 9876.87 3132.64 8997.34 3132.64C8117.8 3132.64 7354 3628.15 6969.86 4355.24H6924.72C7312.29 3605.29 8094.95 3092.64 8997.34 3092.64Z" fill="white"/>
<path d="M8999.59 3376.79C9738.94 3376.79 10386.9 3768.27 10747.4 4355.24H10700.3C10344.3 3791.35 9715.7 3416.79 8999.59 3416.79C8283.48 3416.79 7654.85 3791.35 7298.93 4355.24H7251.8C7612.32 3768.27 8260.24 3376.79 8999.59 3376.79Z" fill="white"/>
<path d="M8997.34 3656.43C9571.95 3656.43 10082.5 3930.59 10405.4 4355.24H10354.8C10038.4 3954.01 9547.96 3696.43 8997.34 3696.43C8446.71 3696.43 7956.25 3954.01 7639.86 4355.24H7589.27C7912.15 3930.59 8422.73 3656.43 8997.34 3656.43Z" fill="white"/>
<path d="M8995.08 3936.08C9397.17 3936.08 9761.96 4095.79 10029.5 4355.24H9971.14C9713.93 4119.76 9371.29 3976.08 8995.08 3976.08C8618.87 3976.08 8276.23 4119.76 8019.02 4355.24H7960.7C8228.2 4095.79 8592.99 3936.08 8995.08 3936.08Z" fill="white"/>
<path d="M8997.34 4220.22C9197.3 4220.22 9385.88 4268.97 9551.84 4355.24H9458.69C9317.23 4294.1 9161.24 4260.22 8997.34 4260.22C8833.43 4260.22 8677.44 4294.1 8535.98 4355.24H8442.83C8608.79 4268.97 8797.37 4220.22 8997.34 4220.22Z" fill="white"/>
<path d="M7023.28 3070.3C6827.91 3241.74 6697.55 3462.42 6547.44 3660.78C6422.62 3825.77 6251.32 3927.99 6104.01 4066.44C6183.52 3901.47 6198.21 3712.43 6299.19 3552.83C6471.86 3279.91 6757.28 3173.99 7023.28 3070.3Z" fill="white"/>
<path d="M10976.7 3070.3C11242.7 3173.99 11528.1 3279.91 11700.8 3552.83C11801.8 3712.43 11816.5 3901.47 11896 4066.44C11748.7 3927.99 11577.4 3825.77 11452.6 3660.78C11302.4 3462.42 11172.1 3241.74 10976.7 3070.3Z" fill="white"/>
</svg>
